<svg xmlns="http://www.w3.org/2000/svg" viewBox="0 0 680 380">
<style>
.a-p{fill:var(--p)}.a-pdk{fill:var(--pdk)}.a-p2{fill:var(--p2)}.a-acc{fill:var(--acc)}.a-accdk{fill:var(--accdk)}
.a-tint{fill:var(--tint)}.a-white{fill:#fff}.a-warm{fill:var(--warm)}.a-shade{fill:#000;opacity:.10}
.s-p{stroke:var(--p);fill:none}.s-p2{stroke:var(--p2);fill:none}.s-pdk{stroke:var(--pdk);fill:none}.s-acc{stroke:var(--acc);fill:none}
.s-white{stroke:#fff;fill:none}
</style>
<path class="a-tint" d="M70 210 C40 120 120 40 240 52 C330 60 360 20 470 30 C590 42 660 120 640 210 C622 300 540 352 420 344 C330 338 290 368 190 352 C100 338 92 286 70 210 Z"/>
<circle class="a-p2" cx="234.0" cy="71.3" r="1.9" opacity="0.17"/>
<circle class="a-p2" cx="367.6" cy="144.3" r="1.1" opacity="0.28"/>
<circle class="a-p2" cx="53.6" cy="167.4" r="1.1" opacity="0.17"/>
<circle class="a-p2" cx="297.4" cy="301.1" r="1.2" opacity="0.21"/>
<circle class="a-p2" cx="425.3" cy="342.2" r="1.8" opacity="0.25"/>
<circle class="a-p2" cx="645.0" cy="35.8" r="2.2" opacity="0.22"/>
<circle class="a-p2" cx="120.9" cy="60.0" r="1.4" opacity="0.35"/>
<circle class="a-p2" cx="143.9" cy="217.7" r="1.9" opacity="0.24"/>
<circle class="a-p2" cx="375.1" cy="41.3" r="1.1" opacity="0.20"/>
<circle class="a-p2" cx="458.7" cy="165.4" r="1.4" opacity="0.30"/>
<circle class="a-p2" cx="315.5" cy="121.9" r="2.1" opacity="0.32"/>
<circle class="a-p2" cx="183.8" cy="215.3" r="1.7" opacity="0.37"/>
<circle class="a-p2" cx="489.6" cy="117.9" r="2.4" opacity="0.18"/>
<circle class="a-p2" cx="293.4" cy="277.4" r="1.2" opacity="0.27"/>
<circle class="a-p2" cx="54.7" cy="247.2" r="2.1" opacity="0.29"/>
<circle class="a-p2" cx="581.6" cy="126.7" r="2.0" opacity="0.30"/>
<circle class="a-p2" cx="395.3" cy="175.1" r="2.2" opacity="0.39"/>
<circle class="a-p2" cx="328.7" cy="245.8" r="1.1" opacity="0.33"/>
<circle class="a-p2" cx="437.7" cy="357.7" r="2.2" opacity="0.22"/>
<circle class="a-p2" cx="273.0" cy="247.3" r="1.0" opacity="0.27"/>
<circle class="a-p2" cx="135.9" cy="59.8" r="1.1" opacity="0.34"/>
<circle class="a-p2" cx="111.5" cy="104.2" r="1.5" opacity="0.37"/>
<circle class="a-p2" cx="80.8" cy="172.7" r="1.8" opacity="0.37"/>
<circle class="a-p2" cx="546.1" cy="313.8" r="1.4" opacity="0.25"/>
<circle class="a-p2" cx="256.0" cy="320.6" r="2.3" opacity="0.19"/>
<circle class="a-p2" cx="141.0" cy="98.9" r="1.3" opacity="0.27"/>
<circle class="a-p2" cx="401.1" cy="109.3" r="1.0" opacity="0.25"/>
<circle class="a-p2" cx="262.6" cy="212.6" r="2.3" opacity="0.32"/>
<circle class="a-p2" cx="354.8" cy="230.0" r="1.9" opacity="0.16"/>
<circle class="a-p2" cx="596.7" cy="285.2" r="2.2" opacity="0.35"/>
<circle class="a-p2" cx="277.2" cy="155.7" r="1.1" opacity="0.31"/>
<circle class="a-p2" cx="69.2" cy="42.9" r="1.3" opacity="0.19"/>
<circle class="a-p2" cx="244.2" cy="37.9" r="1.0" opacity="0.19"/>
<circle class="a-p2" cx="93.9" cy="143.6" r="1.0" opacity="0.37"/>
<circle class="a-p2" cx="416.9" cy="70.5" r="1.4" opacity="0.24"/>
<circle class="a-p2" cx="259.4" cy="61.8" r="2.2" opacity="0.40"/>
<circle class="a-p2" cx="323.6" cy="184.5" r="1.1" opacity="0.18"/>
<circle class="a-p2" cx="245.9" cy="110.0" r="2.2" opacity="0.19"/>
<circle class="a-p2" cx="44.6" cy="343.3" r="1.7" opacity="0.19"/>
<circle class="a-p2" cx="372.2" cy="29.2" r="1.7" opacity="0.39"/>
<circle class="a-p2" cx="573.9" cy="256.7" r="1.4" opacity="0.24"/>
<circle class="a-p2" cx="135.2" cy="282.5" r="1.7" opacity="0.34"/>
<circle class="a-p2" cx="237.7" cy="95.8" r="2.1" opacity="0.40"/>
<circle class="a-p2" cx="567.2" cy="294.1" r="2.1" opacity="0.33"/>
<circle class="a-p2" cx="172.8" cy="196.0" r="1.5" opacity="0.16"/>
<circle class="a-p2" cx="47.6" cy="115.0" r="1.4" opacity="0.32"/>
<circle class="a-p2" cx="632.6" cy="172.1" r="2.3" opacity="0.40"/>
<circle class="a-p2" cx="631.7" cy="144.0" r="1.3" opacity="0.21"/>
<circle class="a-p2" cx="153.9" cy="89.5" r="1.9" opacity="0.38"/>
<circle class="a-p2" cx="559.5" cy="183.0" r="1.9" opacity="0.35"/>
<circle class="a-p2" cx="83.4" cy="244.6" r="2.3" opacity="0.35"/>
<circle class="a-p2" cx="502.6" cy="182.5" r="1.2" opacity="0.35"/>
<circle class="a-p2" cx="239.5" cy="292.3" r="2.4" opacity="0.25"/>
<circle class="a-p2" cx="282.9" cy="341.9" r="2.0" opacity="0.19"/>
<circle class="a-p2" cx="110.0" cy="71.4" r="2.3" opacity="0.35"/>
<circle class="a-p2" cx="122.1" cy="301.0" r="2.4" opacity="0.31"/>
<circle class="a-p2" cx="250.8" cy="206.5" r="1.2" opacity="0.15"/>
<circle class="a-p2" cx="641.7" cy="240.9" r="1.7" opacity="0.38"/>
<circle class="a-p2" cx="303.3" cy="316.4" r="2.2" opacity="0.20"/>
<circle class="a-p2" cx="188.7" cy="119.6" r="1.3" opacity="0.30"/>
<circle class="a-p2" cx="193.4" cy="162.5" r="1.2" opacity="0.38"/>
<circle class="a-p2" cx="252.9" cy="175.8" r="1.8" opacity="0.38"/>
<circle class="a-p2" cx="295.0" cy="332.0" r="1.7" opacity="0.28"/>
<circle class="a-p2" cx="359.8" cy="26.4" r="1.6" opacity="0.20"/>
<circle class="a-p2" cx="32.5" cy="291.7" r="1.2" opacity="0.27"/>
<circle class="a-p2" cx="486.9" cy="209.2" r="1.5" opacity="0.28"/>
<circle class="a-p2" cx="379.9" cy="286.7" r="1.1" opacity="0.29"/>
<circle class="a-p2" cx="186.6" cy="114.2" r="2.1" opacity="0.28"/>
<circle class="a-p2" cx="383.9" cy="278.4" r="2.3" opacity="0.26"/>
<circle class="a-p2" cx="415.9" cy="191.9" r="1.7" opacity="0.32"/>
<circle class="s-p2" cx="315.9" cy="200.7" r="8.8" stroke-width="1.6" opacity=".55"/>
<circle class="s-p2" cx="614.3" cy="253.7" r="12.0" stroke-width="1.6" opacity=".55"/>
<circle class="s-p2" cx="614.7" cy="113.1" r="9.5" stroke-width="1.6" opacity=".55"/>
<circle class="s-p2" cx="615.4" cy="298.8" r="6.1" stroke-width="1.6" opacity=".55"/>
<circle class="s-p2" cx="114.2" cy="171.5" r="5.6" stroke-width="1.6" opacity=".55"/>
<circle class="s-p2" cx="186.8" cy="53.4" r="10.4" stroke-width="1.6" opacity=".55"/>
<circle class="s-p2" cx="518.2" cy="317.0" r="6.2" stroke-width="1.6" opacity=".55"/>
<circle class="s-p2" cx="476.8" cy="241.3" r="6.1" stroke-width="1.6" opacity=".55"/>
<circle class="s-p2" cx="578.5" cy="339.6" r="6.8" stroke-width="1.6" opacity=".55"/>
<circle class="s-p2" cx="621.0" cy="157.4" r="8.9" stroke-width="1.6" opacity=".55"/>
<circle class="s-p2" cx="643.8" cy="296.4" r="6.3" stroke-width="1.6" opacity=".55"/>
<circle class="s-p2" cx="303.2" cy="195.0" r="7.7" stroke-width="1.6" opacity=".55"/>
<circle class="s-p2" cx="159.4" cy="131.9" r="10.8" stroke-width="1.6" opacity=".55"/>
<circle class="s-p2" cx="51.9" cy="207.3" r="8.5" stroke-width="1.6" opacity=".55"/>
<g>
<rect x="60" y="278" width="560" height="44" rx="22" class="a-warm"/>
<path class="s-p2" stroke-width="2.2" d="M77 289 L77 298 M83 289 L83 298"/>
<circle class="a-p" cx="80" cy="285" r="6"/>
<path class="s-p2" stroke-width="2.2" d="M77 311 L77 302 M83 311 L83 302"/>
<circle class="a-p" cx="80" cy="315" r="6"/>
<path class="s-p2" stroke-width="2.2" d="M98 289 L98 298 M104 289 L104 298"/>
<circle class="a-p" cx="101" cy="285" r="6"/>
<path class="s-p2" stroke-width="2.2" d="M98 311 L98 302 M104 311 L104 302"/>
<circle class="a-p" cx="101" cy="315" r="6"/>
<path class="s-p2" stroke-width="2.2" d="M119 289 L119 298 M125 289 L125 298"/>
<circle class="a-p" cx="122" cy="285" r="6"/>
<path class="s-p2" stroke-width="2.2" d="M119 311 L119 302 M125 311 L125 302"/>
<circle class="a-p" cx="122" cy="315" r="6"/>
<path class="s-p2" stroke-width="2.2" d="M140 289 L140 298 M146 289 L146 298"/>
<circle class="a-p" cx="143" cy="285" r="6"/>
<path class="s-p2" stroke-width="2.2" d="M140 311 L140 302 M146 311 L146 302"/>
<circle class="a-p" cx="143" cy="315" r="6"/>
<path class="s-p2" stroke-width="2.2" d="M161 289 L161 298 M167 289 L167 298"/>
<circle class="a-p" cx="164" cy="285" r="6"/>
<path class="s-p2" stroke-width="2.2" d="M161 311 L161 302 M167 311 L167 302"/>
<circle class="a-p" cx="164" cy="315" r="6"/>
<path class="s-p2" stroke-width="2.2" d="M182 289 L182 298 M188 289 L188 298"/>
<circle class="a-p" cx="185" cy="285" r="6"/>
<path class="s-p2" stroke-width="2.2" d="M182 311 L182 302 M188 311 L188 302"/>
<circle class="a-p" cx="185" cy="315" r="6"/>
<path class="s-p2" stroke-width="2.2" d="M203 289 L203 298 M209 289 L209 298"/>
<circle class="a-p" cx="206" cy="285" r="6"/>
<path class="s-p2" stroke-width="2.2" d="M203 311 L203 302 M209 311 L209 302"/>
<circle class="a-p" cx="206" cy="315" r="6"/>
<path class="s-p2" stroke-width="2.2" d="M224 289 L224 298 M230 289 L230 298"/>
<circle class="a-p" cx="227" cy="285" r="6"/>
<path class="s-p2" stroke-width="2.2" d="M224 311 L224 302 M230 311 L230 302"/>
<circle class="a-p" cx="227" cy="315" r="6"/>
<path class="s-p2" stroke-width="2.2" d="M245 289 L245 298 M251 289 L251 298"/>
<circle class="a-p" cx="248" cy="285" r="6"/>
<path class="s-p2" stroke-width="2.2" d="M245 311 L245 302 M251 311 L251 302"/>
<circle class="a-p" cx="248" cy="315" r="6"/>
<path class="s-p2" stroke-width="2.2" d="M266 289 L266 298 M272 289 L272 298"/>
<circle class="a-p" cx="269" cy="285" r="6"/>
<path class="s-p2" stroke-width="2.2" d="M266 311 L266 302 M272 311 L272 302"/>
<circle class="a-p" cx="269" cy="315" r="6"/>
<path class="s-p2" stroke-width="2.2" d="M287 289 L287 298 M293 289 L293 298"/>
<circle class="a-p" cx="290" cy="285" r="6"/>
<path class="s-p2" stroke-width="2.2" d="M287 311 L287 302 M293 311 L293 302"/>
<circle class="a-p" cx="290" cy="315" r="6"/>
<path class="s-p2" stroke-width="2.2" d="M371 289 L371 298 M377 289 L377 298"/>
<circle class="a-p" cx="374" cy="285" r="6"/>
<path class="s-p2" stroke-width="2.2" d="M371 311 L371 302 M377 311 L377 302"/>
<circle class="a-p" cx="374" cy="315" r="6"/>
<path class="s-p2" stroke-width="2.2" d="M392 289 L392 298 M398 289 L398 298"/>
<circle class="a-p" cx="395" cy="285" r="6"/>
<path class="s-p2" stroke-width="2.2" d="M392 311 L392 302 M398 311 L398 302"/>
<circle class="a-p" cx="395" cy="315" r="6"/>
<path class="s-p2" stroke-width="2.2" d="M413 289 L413 298 M419 289 L419 298"/>
<circle class="a-p" cx="416" cy="285" r="6"/>
<path class="s-p2" stroke-width="2.2" d="M413 311 L413 302 M419 311 L419 302"/>
<circle class="a-p" cx="416" cy="315" r="6"/>
<path class="s-p2" stroke-width="2.2" d="M434 289 L434 298 M440 289 L440 298"/>
<circle class="a-p" cx="437" cy="285" r="6"/>
<path class="s-p2" stroke-width="2.2" d="M434 311 L434 302 M440 311 L440 302"/>
<circle class="a-p" cx="437" cy="315" r="6"/>
<path class="s-p2" stroke-width="2.2" d="M455 289 L455 298 M461 289 L461 298"/>
<circle class="a-p" cx="458" cy="285" r="6"/>
<path class="s-p2" stroke-width="2.2" d="M455 311 L455 302 M461 311 L461 302"/>
<circle class="a-p" cx="458" cy="315" r="6"/>
<path class="s-p2" stroke-width="2.2" d="M476 289 L476 298 M482 289 L482 298"/>
<circle class="a-p" cx="479" cy="285" r="6"/>
<path class="s-p2" stroke-width="2.2" d="M476 311 L476 302 M482 311 L482 302"/>
<circle class="a-p" cx="479" cy="315" r="6"/>
<path class="s-p2" stroke-width="2.2" d="M497 289 L497 298 M503 289 L503 298"/>
<circle class="a-p" cx="500" cy="285" r="6"/>
<path class="s-p2" stroke-width="2.2" d="M497 311 L497 302 M503 311 L503 302"/>
<circle class="a-p" cx="500" cy="315" r="6"/>
<path class="s-p2" stroke-width="2.2" d="M518 289 L518 298 M524 289 L524 298"/>
<circle class="a-p" cx="521" cy="285" r="6"/>
<path class="s-p2" stroke-width="2.2" d="M518 311 L518 302 M524 311 L524 302"/>
<circle class="a-p" cx="521" cy="315" r="6"/>
<path class="s-p2" stroke-width="2.2" d="M539 289 L539 298 M545 289 L545 298"/>
<circle class="a-p" cx="542" cy="285" r="6"/>
<path class="s-p2" stroke-width="2.2" d="M539 311 L539 302 M545 311 L545 302"/>
<circle class="a-p" cx="542" cy="315" r="6"/>
<path class="s-p2" stroke-width="2.2" d="M560 289 L560 298 M566 289 L566 298"/>
<circle class="a-p" cx="563" cy="285" r="6"/>
<path class="s-p2" stroke-width="2.2" d="M560 311 L560 302 M566 311 L566 302"/>
<circle class="a-p" cx="563" cy="315" r="6"/>
<path class="s-p2" stroke-width="2.2" d="M581 289 L581 298 M587 289 L587 298"/>
<circle class="a-p" cx="584" cy="285" r="6"/>
<path class="s-p2" stroke-width="2.2" d="M581 311 L581 302 M587 311 L587 302"/>
<circle class="a-p" cx="584" cy="315" r="6"/>
<path class="s-p2" stroke-width="2.2" d="M602 289 L602 298 M608 289 L608 298"/>
<circle class="a-p" cx="605" cy="285" r="6"/>
<path class="s-p2" stroke-width="2.2" d="M602 311 L602 302 M608 311 L608 302"/>
<circle class="a-p" cx="605" cy="315" r="6"/>
<rect x="298" y="264" width="26" height="72" rx="12" class="a-acc"/>
<rect x="336" y="264" width="26" height="72" rx="12" class="a-acc"/>
<rect x="304" y="270" width="6" height="60" rx="3" class="a-white" opacity=".35"/>
<circle class="a-pdk" cx="330" cy="238" r="7"/>
<circle class="a-pdk" cx="330" cy="298" r="7"/>
<circle class="a-pdk" cx="330" cy="350" r="7"/>
<path class="s-pdk" stroke-width="3" stroke-linecap="round" d="M330 220 V370" opacity=".25"/>
<path class="a-pdk" d="M322 364 L338 364 L330 376 Z"/>
<polygon points="161.3,244.5 150.0,251.0 138.7,244.5 138.7,231.5 150.0,225.0 161.3,231.5" class="a-white" stroke="var(--p)" stroke-width="2.4"/>
<polygon points="198.7,257.0 190.0,262.0 181.3,257.0 181.3,247.0 190.0,242.0 198.7,247.0" class="a-white" stroke="var(--p)" stroke-width="2.4"/>
<polygon points="530.4,250.0 520.0,256.0 509.6,250.0 509.6,238.0 520.0,232.0 530.4,238.0" class="a-white" stroke="var(--p)" stroke-width="2.4"/>
</g>
<path d="M40 150 H170 L182 150 L190 138 L198 150 L214 150 L222 170 L236 70 L250 196 L260 150 L292 150 L304 130 L322 150 H420 L430 150 L438 140 L446 150 L460 150 L468 168 L480 92 L492 186 L500 150 L528 150 L540 134 L556 150 H650" class="s-white" stroke-width="9" stroke-linejoin="round" stroke-linecap="round"/>
<path d="M40 150 H170 L182 150 L190 138 L198 150 L214 150 L222 170 L236 70 L250 196 L260 150 L292 150 L304 130 L322 150 H420 L430 150 L438 140 L446 150 L460 150 L468 168 L480 92 L492 186 L500 150 L528 150 L540 134 L556 150 H650" class="s-acc" stroke-width="3.6" stroke-linejoin="round" stroke-linecap="round"/>
<g transform="translate(150 118)">
<path class="a-accdk" d="M8 -62 C8 -86 30 -92 34 -74 L34 -40 L20 -40 Z"/>
<path class="a-p" d="M-14 -58 C-16 -80 0 -84 4 -70 L2 -40 L-10 -40 Z"/>
<path class="a-acc" d="M0 70 C-46 40 -78 6 -74 -26 C-70 -58 -34 -66 -10 -46 C2 -36 6 -36 14 -44 C40 -66 78 -54 76 -20 C74 14 44 44 0 70 Z"/>
<path class="a-accdk" d="M0 70 C20 56 40 38 56 18 C30 30 12 40 0 70 Z" opacity=".55"/>
<path class="a-white" d="M-50 -30 C-46 -46 -30 -50 -20 -44 C-34 -40 -42 -32 -46 -20 Z" opacity=".55"/>
<path class="s-accdk" d="M6 -36 C2 -6 -12 20 -6 46" stroke="var(--accdk)" stroke-width="3" fill="none" opacity=".6"/>
</g>
<g transform="translate(520 120)">
<ellipse rx="96" ry="78" class="a-p2"/>
<ellipse rx="88" ry="70" class="a-white"/>
<ellipse rx="84" ry="66" class="a-tint"/>
<path class="s-p2" stroke-width="3" stroke-linecap="round" d="M-6 -50 C30 -56 52 -34 58 -8"/>
<path class="s-p2" stroke-width="3" stroke-linecap="round" d="M1 -52 C36 -59 56 -36 61 -10"/>
<path class="s-p2" stroke-width="3" stroke-linecap="round" d="M8 -54 C42 -62 60 -38 64 -12"/>
<path class="s-p2" stroke-width="3" stroke-linecap="round" d="M15 -56 C48 -65 64 -40 67 -14"/>
<circle cx="-12" cy="-4" r="30" class="a-pdk"/>
<circle cx="-12" cy="-4" r="30" class="s-p2" stroke-width="3" stroke-dasharray="5 4"/>
<circle cx="-4" cy="-10" r="9" class="a-p2"/>
<g transform="translate(40 34) rotate(-20)"><ellipse rx="17" ry="9" class="a-acc"/><path class="s-white" stroke-width="2" d="M-11 0 Q-8 -6 -5 0 T1 0 T7 0 T12 0"/></g>
<g transform="translate(-52 40) rotate(25)"><ellipse rx="17" ry="9" class="a-acc"/><path class="s-white" stroke-width="2" d="M-11 0 Q-8 -6 -5 0 T1 0 T7 0 T12 0"/></g>
<g transform="translate(54 -2) rotate(70)"><ellipse rx="17" ry="9" class="a-acc"/><path class="s-white" stroke-width="2" d="M-11 0 Q-8 -6 -5 0 T1 0 T7 0 T12 0"/></g>
<path class="s-p" stroke-width="3.2" stroke-linecap="round" d="M-70 -26 q 14 -10 28 0"/>
<path class="s-p" stroke-width="3.2" stroke-linecap="round" d="M-65 -19 q 14 -10 28 0"/>
<path class="s-p" stroke-width="3.2" stroke-linecap="round" d="M-60 -12 q 14 -10 28 0"/>
<circle cx="-36" cy="-46" r="4.5" class="a-p"/>
<circle cx="20" cy="52" r="4.5" class="a-p"/>
<circle cx="-70" cy="6" r="4.5" class="a-p"/>
<circle cx="66" cy="30" r="4.5" class="a-p"/>
</g>
<g transform="translate(360 64)" opacity=".9">
<path class="s-p" stroke-width="4" stroke-linecap="round" d="M0 0 L-34 -22 M0 0 L-30 18 M0 0 L-6 -32 M0 0 L70 6 M70 6 L86 -6 M70 6 L88 16"/>
<circle r="12" class="a-p"/><circle r="5" class="a-white"/>
</g>
</svg>